<?xml version="1.0" encoding="UTF-8"?>
<svg width="134" height="32" xmlns="http://www.w3.org/2000/svg">
  <g fill="none" fill-rule="evenodd">
    <path d="M35.892 22.256v-.721c0-8.479-4.941-13.693-12.163-13.693-3.083 0-6.081 1.271-8.363 3.561-2.237 2.247-3.46 5.172-3.46 8.351 0 3.22 1.14 6.106 3.334 8.436 2.324 2.46 5.112 3.646 8.573 3.646 5.07 0 8.828-2.416 11.022-7.165h-7.347c-1.014.89-2.112 1.273-3.463 1.273-2.914 0-4.646-1.273-5.237-3.688h17.104zm-6.715-4.75h-10.6c.465-2.16 2.45-3.603 5.236-3.603 2.66 0 4.561 1.273 5.364 3.603zM61.142 22.256v-.721c0-8.479-4.942-13.693-12.163-13.693-3.083 0-6.082 1.271-8.363 3.561-2.238 2.247-3.462 5.172-3.462 8.351 0 3.22 1.14 6.106 3.336 8.436 2.323 2.46 5.111 3.646 8.574 3.646 5.068 0 8.827-2.416 11.022-7.165h-7.35c-1.012.89-2.11 1.273-3.461 1.273-2.914 0-4.647-1.273-5.238-3.688h17.105zm-6.715-4.75h-10.6c.464-2.16 2.45-3.603 5.237-3.603 2.66 0 4.56 1.273 5.363 3.603zM2.45 13.607v17.678h6.546V13.607h2.66V8.52h-2.66v-.552c0-2.077.464-2.755 2.491-2.755h.17V.634c-.381 0-.72-.042-1.057-.042-5.574 0-8.194 2.205-8.194 7.08 0 .254.043.551.043.848H0v5.087h2.45zM63.676 13.607v17.678h6.546V13.607h2.66V8.52h-2.66v-.552c0-2.077.464-2.755 2.492-2.755h.167V.634c-.379 0-.717-.042-1.056-.042-5.573 0-8.191 2.205-8.191 7.08 0 .254.042.551.042.848h-2.45v5.087h2.45zM96.817 19.754c0-3.095-1.31-6.232-3.716-8.52-2.28-2.163-5.109-3.307-8.404-3.307-3.083 0-6.081 1.272-8.363 3.56-2.237 2.247-3.461 5.172-3.461 8.351 0 3.18 1.14 6.107 3.336 8.395 2.323 2.46 5.11 3.646 8.573 3.646 3.42 0 6.292-1.229 8.616-3.56 2.28-2.29 3.419-5.13 3.419-8.565m-6.63.169c0 3.095-2.408 5.597-5.362 5.597-2.915 0-5.365-2.502-5.365-5.597 0-3.136 2.409-5.638 5.365-5.638 2.954 0 5.363 2.502 5.363 5.638" fill="#FEFEFE"/>
    <path d="M107.059 16.057a6.39 6.39 0 0 1-5.975-6.015h14.049v-.155c0-5.539-3.526-9.23-8.399-9.23-5.149 0-8.642 3.784-8.642 8.708 0 4.647 3.616 8.738 8.551 8.738 3.586 0 6.437-2 7.97-5.692h-1.419a6.364 6.364 0 0 1-6.135 3.646M124.896 16.057a6.392 6.392 0 0 0 5.976-6.015h-14.051v-.155c0-5.539 3.526-9.23 8.4-9.23 5.149 0 8.644 3.784 8.644 8.708 0 4.647-3.617 8.738-8.553 8.738-3.586 0-6.436-2-7.97-5.692h1.42a6.364 6.364 0 0 0 6.134 3.646" fill="#F6DB04"/>
  </g>
</svg>